<?xml version="1.0" standalone="no"?>
<!DOCTYPE svg PUBLIC "-//W3C//DTD SVG 20010904//EN"
 "http://www.w3.org/TR/2001/REC-SVG-20010904/DTD/svg10.dtd">
<svg version="1.0" xmlns="http://www.w3.org/2000/svg"
 width="250.000000pt" height="150.000000pt" viewBox="0 0 250.000000 150.000000"
 preserveAspectRatio="xMidYMid meet">

<g transform="translate(0.000000,150.000000) scale(0.100000,-0.100000)"
fill="#000000" stroke="none">
<path d="M610 750 l0 -750 640 0 640 0 0 750 0 750 -640 0 -640 0 0 -750z
m548 599 c-11 -24 -13 -26 -25 -11 -16 21 -16 47 -1 71 11 18 12 18 25 -6 11
-21 11 -31 1 -54z m164 -1 l-16 -27 -17 26 c-17 25 -17 29 -1 55 l16 27 17
-26 c17 -25 17 -29 1 -55z m98 27 c0 -5 -8 -20 -18 -33 l-18 -23 -13 27 c-9
22 -10 33 0 57 l12 29 18 -23 c10 -13 19 -28 19 -34z m-339 21 c8 -18 8 -30
-4 -51 l-14 -28 -17 25 c-14 21 -15 30 -5 52 15 32 26 33 40 2z m160 0 c8 -17
8 -29 0 -45 -14 -26 -23 -26 -39 -1 -9 15 -9 25 0 45 14 31 25 32 39 1z m249
-2 c7 -18 6 -33 -4 -51 l-13 -26 -18 27 c-15 23 -16 30 -5 51 17 32 28 32 40
-1z m-78 -137 c15 -32 15 -36 -4 -66 l-21 -32 -19 32 c-19 31 -19 35 -4 66 20
41 28 41 48 0z m-331 -53 c-14 -31 -25 -30 -39 1 -10 21 -9 31 5 51 l16 26 15
-27 c11 -21 11 -33 3 -51z m78 -1 c-9 -18 -15 -20 -26 -12 -16 14 -17 43 -2
71 10 19 11 19 25 -8 12 -23 13 -33 3 -51z m79 -7 l-15 -31 -17 33 c-15 30
-15 34 0 58 l17 26 15 -28 c12 -23 12 -31 0 -58z m92 35 c-1 -9 -7 -27 -14
-39 l-13 -24 -13 31 c-10 26 -10 37 -1 59 12 26 13 26 27 7 8 -10 14 -26 14
-34z m161 -27 c-13 -30 -24 -30 -40 0 -11 20 -10 28 5 51 l17 27 15 -27 c11
-21 11 -33 3 -51z m-161 -126 c0 -10 -5 -18 -11 -18 -5 0 -8 -4 -5 -8 2 -4 1
-14 -3 -21 -6 -8 -12 -3 -21 18 -10 25 -10 37 0 62 l13 31 13 -24 c7 -12 13
-31 14 -40z m82 32 c17 -29 16 -32 -4 -66 l-21 -36 -19 36 c-17 33 -17 38 -3
66 19 37 26 37 47 0z m-333 -56 c-16 -30 -23 -30 -37 1 -10 21 -9 31 5 51 l16
26 15 -27 c11 -23 12 -32 1 -51z m78 -1 l-14 -27 -16 29 c-13 26 -13 32 1 53
l15 24 14 -26 c12 -22 11 -30 0 -53z m85 52 c9 -20 8 -31 -2 -50 -17 -31 -24
-31 -38 0 -9 19 -9 31 0 50 14 32 25 32 40 0z m246 -49 c-14 -33 -22 -33 -37
0 -10 22 -9 31 5 52 l17 25 13 -26 c11 -20 12 -31 2 -51z m-80 -88 c19 -29 19
-33 4 -65 -20 -41 -27 -41 -48 -2 -15 29 -15 34 2 65 10 19 19 34 20 34 1 0
11 -14 22 -32z m-250 -63 c-10 -23 -12 -23 -24 -7 -17 22 -17 47 -2 72 12 18
13 17 25 -11 9 -22 10 -36 1 -54z m172 32 c0 -9 -5 -26 -12 -37 -12 -18 -13
-18 -30 7 -16 25 -16 29 -1 54 15 25 18 26 29 11 8 -9 14 -25 14 -35z m-249
19 c8 -18 8 -30 -4 -52 l-14 -28 -16 29 c-11 22 -12 35 -4 52 13 29 25 29 38
-1z m160 0 c8 -18 8 -30 -3 -51 l-15 -27 -17 27 c-15 23 -16 31 -5 51 16 30
27 30 40 0z m249 3 c9 -16 9 -28 0 -50 -15 -36 -22 -36 -37 -3 -9 19 -9 32 -1
50 14 29 24 30 38 3z m-730 -304 c0 -52 -3 -95 -7 -95 -5 0 -8 43 -8 95 0 52
3 95 8 95 4 0 7 -43 7 -95z m98 50 c-2 -12 -7 -7 -15 16 -12 30 -11 32 3 17 9
-8 14 -23 12 -33z m359 -97 c-2 -29 -3 -8 -3 47 0 55 1 79 3 53 2 -26 2 -71 0
-100z m318 -46 c-5 -5 -25 42 -25 59 0 5 -5 9 -12 9 -6 0 -9 3 -5 6 3 3 -3 26
-14 51 -10 24 -19 50 -19 56 0 7 18 -30 40 -82 22 -52 38 -96 35 -99z m113
150 c2 -7 -2 -10 -12 -6 -9 3 -16 11 -16 16 0 13 23 5 28 -10z m-509 -41 c0
-14 -1 -14 -6 -1 -3 8 -10 24 -15 35 -9 20 -9 20 6 1 9 -11 16 -27 15 -35z
m636 -83 c3 3 5 -2 5 -12 0 -24 -10 -16 -70 56 l-53 63 56 -56 c31 -31 59 -54
62 -51z m-816 1 c14 -19 16 -27 7 -23 -19 7 -46 66 -45 96 1 17 3 15 9 -11 4
-18 17 -46 29 -62z m-109 16 c17 -25 29 -45 26 -45 -3 0 -19 20 -36 45 -17 25
-29 45 -26 45 3 0 19 -20 36 -45z m564 -194 c13 -24 12 -30 -6 -60 l-21 -33
-20 32 c-19 30 -19 33 -3 66 18 38 29 37 50 -5z m-258 -54 c-13 -29 -14 -29
-25 -9 -14 26 -14 48 0 74 10 19 11 19 25 -8 13 -24 13 -32 0 -57z m167 56
c12 -23 12 -30 -2 -54 l-16 -28 -17 27 c-16 24 -16 28 0 54 9 15 17 28 19 28
1 0 9 -12 16 -27z m172 -14 c6 -18 -10 -59 -23 -59 -4 0 -13 9 -20 21 -11 17
-11 26 0 49 13 31 31 26 43 -11z m-414 7 c8 -18 8 -30 -4 -52 l-15 -28 -16 32
c-13 26 -14 35 -4 52 17 26 26 25 39 -4z m160 0 c8 -17 8 -29 0 -45 -15 -28
-25 -27 -39 4 -9 20 -9 30 0 45 17 26 26 25 39 -4z m-81 -180 c-5 -5 -10 -19
-11 -31 0 -16 -4 -14 -16 12 -14 27 -14 36 -3 63 l13 32 14 -33 c9 -22 10 -36
3 -43z m160 -17 l-13 -31 -13 24 c-17 29 -17 53 -2 78 11 18 13 17 26 -11 12
-24 12 -34 2 -60z m-239 57 c8 -18 8 -30 -4 -51 l-14 -28 -17 25 c-14 21 -15
30 -5 52 15 32 26 33 40 2z m159 3 c9 -16 9 -28 0 -50 -15 -36 -23 -36 -38 -4
-9 19 -9 31 0 50 14 30 24 32 38 4z m169 -5 c10 -22 9 -31 -4 -51 -16 -24 -17
-24 -30 -6 -17 22 -18 38 -5 64 14 26 25 24 39 -7z m80 2 c11 -19 10 -28 -2
-51 l-14 -28 -17 25 c-14 21 -15 30 -5 52 15 32 22 33 38 2z"/>
</g>
</svg>
